<?xml version="1.0" encoding="UTF-8"?>
<svg version="1.1" xmlns="http://www.w3.org/2000/svg" width="512" height="512">
<path d="M0 0 C1.05231308 0.00323273 1.05231308 0.00323273 2.12588501 0.00653076 C38.29380516 0.1842601 78.42341288 11.96286303 105.3828125 37.19140625 C107.37414775 38.60886221 107.37414775 38.60886221 109.8515625 37.72265625 C112.44725544 36.27212196 114.50637894 34.69840777 116.75 32.75 C133.26200405 19.2623512 153.04034027 11.07564709 173.375 5.3125 C174.47714844 4.99410156 175.57929688 4.67570313 176.71484375 4.34765625 C189.7970703 0.81808909 203.06758806 -0.1014282 216.5625 -0.0625 C217.63792557 -0.06168427 217.63792557 -0.06168427 218.7350769 -0.06085205 C249.29245202 0.04520134 277.12319679 9.69668197 299.5625 31.0625 C320.69546908 53.04078784 330.4370543 84.29823765 331.375 114.3125 C331.41496094 115.22 331.45492188 116.1275 331.49609375 117.0625 C332.85509815 174.62033326 302.49055062 227.69040745 265.13720703 269.34667969 C263.93421357 270.6886724 262.7381195 272.03687391 261.5480957 273.39038086 C255.6052551 280.09676765 249.37227565 286.46921385 243.02709961 292.79077148 C241.3079133 294.50457233 239.59417417 296.22369082 237.88085938 297.94335938 C232.21466156 303.6133438 226.50627027 309.14093678 220.375 314.3125 C219.25660938 315.28507656 218.13939263 316.25900487 217.0234375 317.234375 C208.99957749 324.18467114 200.80207609 330.85771831 192.375 337.3125 C191.74335938 337.7971875 191.11171875 338.281875 190.4609375 338.78125 C177.19540939 348.92858624 163.56754208 358.50229909 149.375 367.3125 C144.27260404 361.2873303 139.26819148 355.23058389 134.5 348.9375 C130.43199105 343.57174117 126.13605495 338.4433194 121.71777344 333.36328125 C117.95400371 329.02820316 114.37897387 324.57509863 110.8984375 320.0078125 C110.39570313 319.44835937 109.89296875 318.88890625 109.375 318.3125 C108.715 318.3125 108.055 318.3125 107.375 318.3125 C106.0422812 319.77940559 104.78586131 321.31572501 103.5625 322.875 C99.79946938 327.58786311 95.91862697 332.15797629 91.9375 336.6875 C86.94931276 342.39118216 82.24518144 348.23857348 77.67578125 354.28125 C74.32698971 358.69324021 70.85622832 363.00472305 67.375 367.3125 C52.07887356 357.98045956 37.36721712 347.49716364 23.375 336.3125 C22.4480835 335.57265869 22.4480835 335.57265869 21.50244141 334.81787109 C14.29036999 329.04430691 7.15283812 323.18419232 0.125 317.1875 C-0.38023193 316.75775879 -0.88546387 316.32801758 -1.40600586 315.88525391 C-11.41947077 307.27338965 -20.93618519 298.16701726 -30.25415039 288.8137207 C-31.95019726 287.11226222 -33.65159821 285.41628737 -35.35351562 283.72070312 C-40.98956729 278.08864972 -46.50303579 272.4235215 -51.625 266.3125 C-52.11637451 265.73846436 -52.60774902 265.16442871 -53.11401367 264.57299805 C-86.26921605 225.63688859 -112.44244965 178.352685 -114.625 126.3125 C-114.686875 124.94544922 -114.686875 124.94544922 -114.75 123.55078125 C-115.47560465 91.03462279 -106.6230497 57.8112161 -84.625 33.3125 C-84.01269531 32.61769531 -83.40039062 31.92289063 -82.76953125 31.20703125 C-61.53364024 8.52220951 -30.16846395 -0.16757022 0 0 Z " fill="#000000" transform="translate(147.625,-0.3125)"/>
<path d="M0 0 C3.5680705 1.18935683 4.29279803 2.31218117 6.5625 5.25 C7.27148438 6.16265625 7.98046875 7.0753125 8.7109375 8.015625 C9.46632813 9.00046875 10.22171875 9.9853125 11 11 C11.75539063 11.96421875 12.51078125 12.9284375 13.2890625 13.921875 C64.1262078 79.16563803 64.1262078 79.16563803 61.77734375 111.01953125 C59.42779807 128.42441818 50.53393018 142.71122417 36.953125 153.6484375 C22.71262409 163.88704582 4.94366277 166.21488872 -12.13476562 163.68359375 C-15.92764736 162.85853183 -19.44352849 161.5321746 -23 160 C-24.27810547 159.50886719 -24.27810547 159.50886719 -25.58203125 159.0078125 C-40.54640966 152.55074213 -51.07648319 138.38029538 -56.94140625 123.6328125 C-62.85008574 106.22076183 -58.82140581 90.06997849 -51.05517578 74.11376953 C-41.92659167 55.82703161 -30.45862116 39.16494932 -18 23 C-17.16887314 21.91176195 -16.33815951 20.82320821 -15.5078125 19.734375 C-10.42666007 13.08533514 -5.25995722 6.50882974 0 0 Z " fill="#000000" transform="translate(255,348)"/>
</svg>
